# Blender v2.81 (sub 16) OBJ File: ''
# www.blender.org
mtllib target.mtl
o Plane
v -1.000000 0.000000 1.000000
v 1.000000 0.000000 1.000000
v -1.000000 0.000000 -1.000000
v 1.000000 0.000000 -1.000000
v -1.000000 0.000000 0.000000
v 0.000000 0.000000 1.000000
v 1.000000 0.000000 0.000000
v 0.000000 0.000000 -1.000000
v -1.000000 0.000000 0.500000
v 0.500000 0.000000 1.000000
v 1.000000 0.000000 -0.500000
v -0.500000 0.000000 -1.000000
v -1.000000 0.000000 -0.500000
v -0.500000 0.000000 1.000000
v 1.000000 0.000000 0.500000
v 0.500000 0.000000 -1.000000
v 0.000000 0.000000 -0.500000
v 0.000000 0.000000 0.500000
v -0.500000 0.000000 0.000000
v 0.500000 0.000000 0.000000
v 0.500000 0.000000 0.500000
v -0.500000 0.000000 0.500000
v -0.500000 0.000000 -0.500000
v 0.500000 0.000000 -0.500000
v -1.000000 0.087794 0.500000
v -1.000000 0.087794 1.000000
v 0.500000 0.087794 1.000000
v 1.000000 0.087794 1.000000
v 1.000000 0.087794 -0.500000
v 1.000000 0.087794 -1.000000
v -0.500000 0.087794 -1.000000
v -1.000000 0.087794 -1.000000
v -1.000000 0.087794 -0.500000
v -1.000000 0.087794 0.000000
v -0.500000 0.087794 1.000000
v 0.000000 0.087794 1.000000
v 1.000000 0.087794 0.500000
v 1.000000 0.087794 0.000000
v 0.500000 0.087794 -1.000000
v 0.000000 0.087794 -1.000000
v 0.000000 0.087794 -0.500000
v -0.500000 0.087794 0.000000
v 0.000000 0.087794 0.500000
v 0.500000 0.087794 0.000000
v 0.500000 0.087794 0.500000
v -0.500000 0.087794 0.500000
v -0.500000 0.087794 -0.500000
v 0.500000 0.087794 -0.500000
vt 0.750000 0.750000
vt 0.750000 1.000000
vt 1.000000 1.000000
vt 1.000000 0.750000
vt 0.250000 0.750000
vt 0.250000 1.000000
vt 0.500000 1.000000
vt 0.500000 0.750000
vt 0.750000 0.250000
vt 0.750000 0.500000
vt 1.000000 0.500000
vt 1.000000 0.250000
vt 0.500000 0.000000
vt 0.500000 0.250000
vt 0.750000 0.000000
vt 1.000000 0.000000
vt 0.000000 0.250000
vt 0.000000 0.500000
vt 0.250000 0.500000
vt 0.250000 0.250000
vt 0.000000 0.000000
vt 0.250000 0.000000
vt 0.000000 0.750000
vt 0.000000 1.000000
vt 0.750000 0.750000
vt 1.000000 0.750000
vt 1.000000 1.000000
vt 0.750000 1.000000
vt 0.250000 0.750000
vt 0.500000 0.750000
vt 0.500000 1.000000
vt 0.250000 1.000000
vt 0.750000 0.250000
vt 1.000000 0.250000
vt 1.000000 0.500000
vt 0.750000 0.500000
vt 0.500000 0.000000
vt 0.750000 0.000000
vt 0.500000 0.250000
vt 1.000000 0.000000
vt 0.000000 0.250000
vt 0.250000 0.250000
vt 0.250000 0.500000
vt 0.000000 0.500000
vt 0.000000 0.000000
vt 0.250000 0.000000
vt 0.000000 0.750000
vt 0.000000 1.000000
vn 0.0000 -1.0000 0.0000
vn 0.0000 1.0000 0.0000
vn 0.0000 0.0000 1.0000
vn 1.0000 0.0000 0.0000
vn 0.0000 0.0000 -1.0000
vn -1.0000 0.0000 0.0000
usemtl (null)
s off
f 24/1/1 16/2/1 4/3/1 11/4/1
f 23/5/1 12/6/1 8/7/1 17/8/1
f 21/9/1 20/10/1 7/11/1 15/12/1
f 6/13/1 18/14/1 21/9/1 10/15/1
f 10/15/1 21/9/1 15/12/1 2/16/1
f 9/17/1 5/18/1 19/19/1 22/20/1
f 1/21/1 9/17/1 22/20/1 14/22/1
f 14/22/1 22/20/1 18/14/1 6/13/1
f 13/23/1 3/24/1 12/6/1 23/5/1
f 5/18/1 13/23/1 23/5/1 19/19/1
f 17/8/1 8/7/1 16/2/1 24/1/1
f 20/10/1 24/1/1 11/4/1 7/11/1
f 48/25/2 29/26/2 30/27/2 39/28/2
f 47/29/2 41/30/2 40/31/2 31/32/2
f 45/33/2 37/34/2 38/35/2 44/36/2
f 36/37/2 27/38/2 45/33/2 43/39/2
f 27/38/2 28/40/2 37/34/2 45/33/2
f 25/41/2 46/42/2 42/43/2 34/44/2
f 26/45/2 35/46/2 46/42/2 25/41/2
f 35/46/2 36/37/2 43/39/2 46/42/2
f 33/47/2 47/29/2 31/32/2 32/48/2
f 34/44/2 42/43/2 47/29/2 33/47/2
f 41/30/2 48/25/2 39/28/2 40/31/2
f 44/36/2 38/35/2 29/26/2 48/25/2
f 10/15/3 2/16/3 28/40/3 27/38/3
f 2/16/4 15/12/4 37/34/4 28/40/4
f 23/5/3 17/8/3 41/30/3 47/29/3
f 22/20/4 19/19/4 42/43/4 46/42/4
f 11/4/4 4/3/4 30/27/4 29/26/4
f 4/3/5 16/2/5 39/28/5 30/27/5
f 5/18/6 9/17/6 25/41/6 34/44/6
f 12/6/5 3/24/5 32/48/5 31/32/5
f 24/1/6 20/10/6 44/36/6 48/25/6
f 6/13/3 10/15/3 27/38/3 36/37/3
f 13/23/6 5/18/6 34/44/6 33/47/6
f 17/8/3 24/1/3 48/25/3 41/30/3
f 7/11/4 11/4/4 29/26/4 38/35/4
f 18/14/5 22/20/5 46/42/5 43/39/5
f 14/22/3 6/13/3 36/37/3 35/46/3
f 20/10/6 21/9/6 45/33/6 44/36/6
f 8/7/5 12/6/5 31/32/5 40/31/5
f 15/12/4 7/11/4 38/35/4 37/34/4
f 3/24/6 13/23/6 33/47/6 32/48/6
f 19/19/4 23/5/4 47/29/4 42/43/4
f 16/2/5 8/7/5 40/31/5 39/28/5
f 21/9/5 18/14/5 43/39/5 45/33/5
f 9/17/6 1/21/6 26/45/6 25/41/6
f 1/21/3 14/22/3 35/46/3 26/45/3
